<svg xmlns="http://www.w3.org/2000/svg" width="1365.333" height="1365.333" version="1.0" viewBox="0 0 1024 1024"><path d="M0 512v512h1024V0H0v512zm900 2.5V901H657l-.2-8.8c-.1-4.8-.2-10.6-.1-13 .1-2.3-.1-4.2-.3-4.2-.2 0-6.5 2-13.9 4.5-55.8 18.6-115.3 21.5-175.5 8.4-117-25.4-205.5-110.6-234.5-225.8-9.1-36.3-11.8-82.7-7-121.1 7.3-58 27.5-109.4 60-152.5 46.9-62.1 115.2-103.3 195.5-117.9 22-4 34.9-5 61.5-5 38.6 0 66.2 4.6 102.4 16.9 5.8 1.9 10.9 3.5 11.3 3.5.4 0 .8-26.5.8-58.8v-58.9l77.8-12.8c42.7-7 97.1-16.1 120.7-20 23.7-4 43.3-7.3 43.8-7.4.4-.1.7 173.8.7 386.4z"/></svg>