<svg xmlns="http://www.w3.org/2000/svg" width="590" height="130" viewBox="0 0 590 130"><path d="M550.259 72.782l33.438-46.141H536.97l-10.026 16.431-10.131-16.431h-34.194c-4.976.044-9.372.866-13.181 2.45V26.62h-38.896v2.184c-5.732-2.288-11.896-3.473-18.229-3.473-10.323 0-20.059 2.861-28.201 8.107V3.283l-38.896 6.496v19.025c-5.731-2.288-11.888-3.473-18.229-3.473-10.312 0-20.062 2.866-28.203 8.117V3.265l-38.562 6.527v16.805h-30.373L218.14 64.105 206.654 26.62h-50.396v2.184c-5.729-2.288-11.889-3.473-18.229-3.473-10.314 0-20.056 2.861-28.194 8.107V3.283l-38.9 6.498v19.021c-5.729-2.288-11.888-3.473-18.228-3.473-13.53 0-26.122 4.906-35.453 13.813-9.821 9.377-15.229 22.62-15.229 37.294 0 28.676 21.789 50.299 50.684 50.299a49.292 49.292 0 0 0 18.228-3.473v1.596h38.897v-6.049c8.062 5.176 17.702 7.926 28.194 7.926 6.311 0 12.467-1.18 18.229-3.473v1.596h38.896v-17.299l6.208 17.308h33.604l25.26-70.105v70.103h38.562v-6.045c8.061 5.172 17.695 7.922 28.206 7.922 6.308 0 12.465-1.18 18.228-3.473v1.596h38.897v-6.041c8.062 5.17 17.69 7.918 28.198 7.918 6.303 0 12.465-1.18 18.229-3.473v1.646l82.621-.001 13.769-20.955 13.515 20.955h47.537l-37.728-52.132zm-80.824 47.666l.007-2.134V74.33c.136-6.114 8.438-13.473 18.594-13.473 2.541 0 5.068.444 7.525 1.328l7.709 10.633-29.664 41.759-4.171 5.871z"/></svg>