<?xml version="1.0" encoding="utf-8"?>
<!-- Generator: Adobe Illustrator 16.0.0, SVG Export Plug-In . SVG Version: 6.00 Build 0)  -->
<!DOCTYPE svg PUBLIC "-//W3C//DTD SVG 1.1//EN" "http://www.w3.org/Graphics/SVG/1.1/DTD/svg11.dtd">
<svg version="1.1" id="Layer_1" xmlns="http://www.w3.org/2000/svg" xmlns:xlink="http://www.w3.org/1999/xlink" x="0px" y="0px"
	 width="590px" height="130px" viewBox="0 0 590 130" enable-background="new 0 0 590 130" xml:space="preserve">
<path fill="#FFFFFF" d="M550.259,72.782l33.438-46.141h-46.727l-10.027,16.431l-10.131-16.431h-34.194
	c-4.975,0.044-9.372,0.866-13.181,2.45V26.62h-38.896v2.184c-5.732-2.288-11.896-3.473-18.229-3.473
	c-10.323,0-20.058,2.861-28.2,8.107V3.283l-38.896,6.496v19.025c-5.732-2.288-11.888-3.473-18.229-3.473
	c-10.312,0-20.062,2.866-28.204,8.117V3.265l-38.562,6.527v16.805h-30.373L218.14,64.105L206.654,26.62h-50.396v2.184
	c-5.729-2.288-11.889-3.473-18.229-3.473c-10.314,0-20.056,2.861-28.194,8.107V3.283l-38.9,6.498v19.022
	c-5.729-2.288-11.888-3.473-18.228-3.473c-13.53,0-26.122,4.906-35.453,13.813C7.433,48.519,2.025,61.762,2.025,76.436
	c0,28.676,21.789,50.299,50.684,50.299c6.308,0,12.464-1.185,18.228-3.473v1.596h38.897v-6.049
	c8.062,5.176,17.702,7.926,28.194,7.926c6.311,0,12.467-1.18,18.229-3.473v1.596h38.896v-17.299l6.208,17.307h33.604l25.26-70.105
	v70.102h38.562v-6.045c8.06,5.172,17.696,7.922,28.206,7.922c6.308,0,12.465-1.18,18.228-3.473v1.596h38.897v-6.041
	c8.061,5.17,17.691,7.918,28.198,7.918c6.303,0,12.465-1.18,18.229-3.473v1.646l82.621-0.001l13.769-20.955l13.514,20.955h47.537
	L550.259,72.782z M266.765,15.32l25.479-4.312v15.589h-25.479V15.32z M230.367,118.322h-24.404L188.61,69.939v48.375h-25.812v-5.992
	c-7.087,4.996-15.665,7.871-24.771,7.871c-14.771,0-26.834-6.186-34.591-15.84c-2.102-2.707-3.185-4.392-5.593-9.498
	c-0.295,5.963,1.159,12.58,5.445,17.4v6.059H77.476v-5.992c-7.084,4.996-15.667,7.871-24.771,7.871
	c-26.396,0-44.141-19.717-44.141-43.758c0-27.414,20.5-44.562,44.141-44.562c9.399,0,17.872,2.968,24.771,7.934V15.32l25.812-4.312
	v28.934c-3.714,4.814-5.497,11.386-5.223,16.973c2.273-4.823,3.345-6.444,5.223-8.86v0.011c8.206-10.332,20.934-16.19,34.737-16.19
	c9.404,0,17.873,2.968,24.771,7.934v-6.647h12.62h13.188h13.206l16.269,53.081l16.583-53.103h26.391L230.367,118.322z
	 M469.435,120.448l0.006-2.134V74.33c0.136-6.114,8.438-13.473,18.594-13.473c2.541,0,5.068,0.444,7.526,1.328l7.709,10.633
	l-29.665,41.759L469.435,120.448z M526.979,91.964l-17.34,26.402h-30.701l32.38-45.587l-11.57-15.964
	c-18.245-8.005-36.646,4.662-36.852,17.453v44.047h-0.011v0.055h-25.479v-0.055h-0.321v-5.99c-7.09,4.994-15.673,7.869-24.771,7.869
	c-14.869,0-26.984-6.258-34.744-16.017v0.021c-1.994-2.597-3.091-4.318-5.438-9.302c-0.298,5.959,1.156,12.574,5.438,17.393v6.025
	h-25.811v-5.992c-7.082,4.996-15.665,7.871-24.771,7.871c-14.866,0-26.984-6.258-34.735-16.022
	c-2.017-2.603-3.104-4.319-5.455-9.315c-0.299,5.963,1.161,12.582,5.444,17.402v6.057h-25.479V33.14h25.479v6.825
	c-3.703,4.815-5.479,11.374-5.199,16.949c2.291-4.854,3.355-6.465,5.257-8.91c8.212-10.291,20.916-16.129,34.688-16.129
	c9.405,0,17.873,2.968,24.771,7.934V15.32l25.811-4.312v28.92c-3.724,4.814-5.507,11.394-5.229,16.986
	c2.28-4.831,3.347-6.449,5.229-8.873v0.021c8.207-10.329,20.938-16.187,34.744-16.187c9.399,0,17.867,2.968,24.771,7.934v-6.647
	h25.812v9.811c2.563-4.188,7.584-9.678,19.724-9.788h30.543l13.814,22.403l13.666-22.403h30.23l-28.696,39.594l32.998,45.587
	h-31.162L526.979,91.964z"/>
</svg>
