<?xml version="1.0" encoding="utf-8"?>
<!-- Generator: Adobe Illustrator 16.0.0, SVG Export Plug-In . SVG Version: 6.00 Build 0)  -->
<!DOCTYPE svg PUBLIC "-//W3C//DTD SVG 1.1//EN" "http://www.w3.org/Graphics/SVG/1.1/DTD/svg11.dtd">
<svg version="1.1" id="Layer_1" xmlns="http://www.w3.org/2000/svg" xmlns:xlink="http://www.w3.org/1999/xlink" x="0px" y="0px"
	 width="590px" height="130px" viewBox="0 0 590 130" enable-background="new 0 0 590 130" xml:space="preserve">
<path d="M550.259,72.782l33.438-46.141H536.97l-10.026,16.431l-10.131-16.431h-34.194c-4.976,0.044-9.372,0.866-13.181,2.45V26.62
	h-38.896v2.184c-5.732-2.288-11.896-3.473-18.229-3.473c-10.323,0-20.059,2.861-28.201,8.107V3.283l-38.896,6.496v19.025
	c-5.731-2.288-11.888-3.473-18.229-3.473c-10.312,0-20.062,2.866-28.203,8.117V3.265l-38.562,6.527v16.805h-30.373L218.14,64.105
	L206.654,26.62h-50.396v2.184c-5.729-2.288-11.889-3.473-18.229-3.473c-10.314,0-20.056,2.861-28.194,8.107V3.283l-38.9,6.498
	v19.021c-5.729-2.288-11.888-3.473-18.228-3.473c-13.53,0-26.122,4.906-35.453,13.813C7.433,48.519,2.025,61.762,2.025,76.436
	c0,28.676,21.789,50.299,50.684,50.299c6.308,0,12.464-1.185,18.228-3.473v1.596h38.897v-6.049
	c8.062,5.176,17.702,7.926,28.194,7.926c6.311,0,12.467-1.18,18.229-3.473v1.596h38.896v-17.299l6.208,17.308h33.604l25.26-70.105
	v70.103h38.562v-6.045c8.061,5.172,17.695,7.922,28.206,7.922c6.308,0,12.465-1.18,18.228-3.473v1.596h38.897v-6.041
	c8.062,5.17,17.69,7.918,28.198,7.918c6.303,0,12.465-1.18,18.229-3.473v1.646l82.621-0.001l13.769-20.955l13.515,20.955h47.537
	L550.259,72.782z M469.435,120.448l0.007-2.134V74.33c0.136-6.114,8.438-13.473,18.594-13.473c2.541,0,5.068,0.444,7.525,1.328
	l7.709,10.633l-29.664,41.759L469.435,120.448z"/>
</svg>
