<?xml version="1.0" encoding="utf-8"?>
<!-- Generator: Adobe Illustrator 16.0.0, SVG Export Plug-In . SVG Version: 6.00 Build 0)  -->
<!DOCTYPE svg PUBLIC "-//W3C//DTD SVG 1.1//EN" "http://www.w3.org/Graphics/SVG/1.1/DTD/svg11.dtd">
<svg version="1.1" id="Layer_1" xmlns="http://www.w3.org/2000/svg" xmlns:xlink="http://www.w3.org/1999/xlink" x="0px" y="0px"
	 width="82px" height="82px" viewBox="-678.5 441.5 82 82" enable-background="new -678.5 441.5 82 82" xml:space="preserve">
<polygon fill="#FFFFFF" points="-642.5,459.5 -642.5,461.5 -643.5,461.5 -643.5,460.5 -644.5,460.5 -644.5,461.5 -645.5,461.5 
	-645.5,458.5 -646.5,458.5 -646.5,461.5 -647.5,461.5 -647.5,454.5 -648.5,454.5 -648.5,461.5 -649.5,461.5 -649.5,457.5 
	-650.5,457.5 -650.5,461.5 -651.5,461.5 -651.5,460.5 -652.5,460.5 -652.5,461.5 -653.5,461.5 -653.5,458.5 -654.5,458.5 
	-654.5,461.5 -655.5,461.5 -655.5,457.5 -656.5,457.5 -656.5,461.5 -657.5,461.5 -657.5,453.5 -658.5,453.5 -658.5,461.5 
	-659.5,461.5 -659.5,452.5 -660.5,452.5 -660.5,461.5 -661.5,461.5 -661.5,456.5 -662.5,456.5 -662.5,461.5 -663.5,461.5 
	-663.5,459.5 -664.5,459.5 -664.5,461.5 -665.5,461.5 -665.5,460.5 -666.5,460.5 -666.5,461.5 -667.5,461.5 -667.5,455.5 
	-668.5,455.5 -668.5,461.5 -669.5,461.5 -669.5,453.5 -670.5,453.5 -670.5,461.5 -671.5,461.5 -671.5,457.5 -672.5,457.5 
	-672.5,461.5 -673.5,461.5 -673.5,459.5 -674.5,459.5 -674.5,461.5 -674.5,462.5 -674.5,464.5 -673.5,464.5 -673.5,462.5 
	-672.5,462.5 -672.5,466.5 -671.5,466.5 -671.5,462.5 -670.5,462.5 -670.5,470.5 -669.5,470.5 -669.5,462.5 -668.5,462.5 
	-668.5,468.5 -667.5,468.5 -667.5,462.5 -666.5,462.5 -666.5,463.5 -665.5,463.5 -665.5,462.5 -664.5,462.5 -664.5,464.5 
	-663.5,464.5 -663.5,462.5 -662.5,462.5 -662.5,467.5 -661.5,467.5 -661.5,462.5 -660.5,462.5 -660.5,471.5 -659.5,471.5 
	-659.5,462.5 -658.5,462.5 -658.5,470.5 -657.5,470.5 -657.5,462.5 -656.5,462.5 -656.5,466.5 -655.5,466.5 -655.5,462.5 
	-654.5,462.5 -654.5,465.5 -653.5,465.5 -653.5,462.5 -652.5,462.5 -652.5,463.5 -651.5,463.5 -651.5,462.5 -650.5,462.5 
	-650.5,466.5 -649.5,466.5 -649.5,462.5 -648.5,462.5 -648.5,469.5 -647.5,469.5 -647.5,462.5 -646.5,462.5 -646.5,465.5 
	-645.5,465.5 -645.5,462.5 -644.5,462.5 -644.5,463.5 -643.5,463.5 -643.5,462.5 -642.5,462.5 -642.5,464.5 -641.5,464.5 
	-641.5,462.5 -641.5,461.5 -641.5,459.5 "/>
<rect x="-633.5" y="461.5" fill="#FFFFFF" width="33" height="1"/>
<polygon points="-642.5,500.5 -642.5,502.5 -643.5,502.5 -643.5,501.5 -644.5,501.5 -644.5,502.5 -645.5,502.5 -645.5,499.5 
	-646.5,499.5 -646.5,502.5 -647.5,502.5 -647.5,495.5 -648.5,495.5 -648.5,502.5 -649.5,502.5 -649.5,498.5 -650.5,498.5 
	-650.5,502.5 -651.5,502.5 -651.5,501.5 -652.5,501.5 -652.5,502.5 -653.5,502.5 -653.5,499.5 -654.5,499.5 -654.5,502.5 
	-655.5,502.5 -655.5,498.5 -656.5,498.5 -656.5,502.5 -657.5,502.5 -657.5,494.5 -658.5,494.5 -658.5,502.5 -659.5,502.5 
	-659.5,493.5 -660.5,493.5 -660.5,502.5 -661.5,502.5 -661.5,497.5 -662.5,497.5 -662.5,502.5 -663.5,502.5 -663.5,500.5 
	-664.5,500.5 -664.5,502.5 -665.5,502.5 -665.5,501.5 -666.5,501.5 -666.5,502.5 -667.5,502.5 -667.5,496.5 -668.5,496.5 
	-668.5,502.5 -669.5,502.5 -669.5,494.5 -670.5,494.5 -670.5,502.5 -671.5,502.5 -671.5,498.5 -672.5,498.5 -672.5,502.5 
	-673.5,502.5 -673.5,500.5 -674.5,500.5 -674.5,502.5 -674.5,503.5 -674.5,505.5 -673.5,505.5 -673.5,503.5 -672.5,503.5 
	-672.5,507.5 -671.5,507.5 -671.5,503.5 -670.5,503.5 -670.5,511.5 -669.5,511.5 -669.5,503.5 -668.5,503.5 -668.5,509.5 
	-667.5,509.5 -667.5,503.5 -666.5,503.5 -666.5,504.5 -665.5,504.5 -665.5,503.5 -664.5,503.5 -664.5,505.5 -663.5,505.5 
	-663.5,503.5 -662.5,503.5 -662.5,508.5 -661.5,508.5 -661.5,503.5 -660.5,503.5 -660.5,512.5 -659.5,512.5 -659.5,503.5 
	-658.5,503.5 -658.5,511.5 -657.5,511.5 -657.5,503.5 -656.5,503.5 -656.5,507.5 -655.5,507.5 -655.5,503.5 -654.5,503.5 
	-654.5,506.5 -653.5,506.5 -653.5,503.5 -652.5,503.5 -652.5,504.5 -651.5,504.5 -651.5,503.5 -650.5,503.5 -650.5,507.5 
	-649.5,507.5 -649.5,503.5 -648.5,503.5 -648.5,510.5 -647.5,510.5 -647.5,503.5 -646.5,503.5 -646.5,506.5 -645.5,506.5 
	-645.5,503.5 -644.5,503.5 -644.5,504.5 -643.5,504.5 -643.5,503.5 -642.5,503.5 -642.5,505.5 -641.5,505.5 -641.5,503.5 
	-641.5,502.5 -641.5,500.5 "/>
<rect x="-633.5" y="502.5" width="33" height="1"/>
</svg>
